<svg version="1.1" id="pipe_down_ahu_left" xmlns="http://www.w3.org/2000/svg" xmlns:xlink="http://www.w3.org/1999/xlink" xmlns:a="http://ns.adobe.com/AdobeSVGViewerExtensions/3.0/" x="0px" y="0px" width="24px" height="48px" viewBox="0 0 24 370" enable-background="new 0 0 24 370" xml:space="preserve">
    <linearGradient id="pipe2_12_" gradientUnits="userSpaceOnUse" x1="11.9995" y1="196.998" x2="11.9995" y2="172.998" gradientTransform="matrix(2.048910e-007 1 -1 0 196.9995 173)">
        <stop offset="0" style="stop-color:#666666;stop-opacity:0.9" />
        <stop offset="0.5352" style="stop-color:#E6E6E6;stop-opacity:0" />
        <stop offset="1" style="stop-color:#666666;stop-opacity:0.8" />
        <a:midPointStop offset="0" style="stop-color:#666666;stop-opacity:0.9" />
        <a:midPointStop offset="0.5" style="stop-color:#666666;stop-opacity:0.9" />
        <a:midPointStop offset="0.5352" style="stop-color:#E6E6E6;stop-opacity:0" />
        <a:midPointStop offset="0.5" style="stop-color:#E6E6E6;stop-opacity:0" />
        <a:midPointStop offset="1" style="stop-color:#666666;stop-opacity:0.8" />
    </linearGradient>
    <rect id="pipe2_12" fill="url(#pipe2_12_)" width="24" height="370" />
    <g id="d1_12">
        <ellipse opacity="0.6" fill="#00A89C" cx="16.572" cy="11.449" rx="3.478" ry="3.277" />
        <ellipse opacity="0.5" fill="#0071BB" cx="9.121" cy="31.046" rx="3.478" ry="3.277" />
        <ellipse opacity="0.6" fill="#0071BB" cx="8.31" cy="75.385" rx="3.478" ry="3.277" />
        <ellipse opacity="0.7" fill="#33B9EB" cx="16.485" cy="98.147" rx="3.478" ry="3.277" />
        <ellipse opacity="0.8" fill="#00B2E9" cx="15.352" cy="51.425" rx="3.477" ry="3.277" />
        <ellipse opacity="0.9" fill="#FFFFFF" cx="15.352" cy="10.327" rx="0.695" ry="0.655" />
        <ellipse opacity="0.9" fill="#FFFFFF" cx="7.614" cy="29.735" rx="0.695" ry="0.655" />
        <ellipse opacity="0.9" fill="#FFFFFF" cx="7.291" cy="74.399" rx="0.695" ry="0.656" />
        <ellipse opacity="0.9" fill="#FFFFFF" cx="16.2" cy="96.506" rx="0.695" ry="0.656" />
        <ellipse opacity="0.9" fill="#FFFFFF" cx="13.717" cy="50.173" rx="0.696" ry="0.656" />
    </g>
    <g id="d2_12">
        <ellipse opacity="0.6" fill="#00A89C" cx="7.312" cy="127.901" rx="3.478" ry="3.277" />
        <ellipse opacity="0.5" fill="#0071BB" cx="14.764" cy="146.365" rx="3.478" ry="3.277" />
        <ellipse opacity="0.6" fill="#0071BB" cx="15.574" cy="190.705" rx="3.478" ry="3.277" />
        <ellipse opacity="0.7" fill="#33B9EB" cx="7.399" cy="214.598" rx="3.477" ry="3.277" />
        <ellipse opacity="0.8" fill="#00B2E9" cx="8.533" cy="167.876" rx="3.478" ry="3.277" />
        <ellipse opacity="0.9" fill="#FFFFFF" cx="8.532" cy="126.779" rx="0.696" ry="0.655" />
        <ellipse opacity="0.9" fill="#FFFFFF" cx="16.271" cy="145.055" rx="0.696" ry="0.656" />
        <ellipse opacity="0.9" fill="#FFFFFF" cx="16.594" cy="189.719" rx="0.695" ry="0.656" />
        <ellipse opacity="0.9" fill="#FFFFFF" cx="7.684" cy="212.958" rx="0.695" ry="0.656" />
        <ellipse opacity="0.9" fill="#FFFFFF" cx="10.167" cy="166.624" rx="0.695" ry="0.656" />
    </g>
    <g id="d3_12">
        <ellipse opacity="0.6" fill="#00A89C" cx="16.163" cy="245.225" rx="3.478" ry="3.277" />
        <ellipse opacity="0.5" fill="#0071BB" cx="8.712" cy="264.821" rx="3.478" ry="3.277" />
        <ellipse opacity="0.6" fill="#0071BB" cx="7.901" cy="309.16" rx="3.477" ry="3.277" />
        <ellipse opacity="0.7" fill="#33B9EB" cx="16.077" cy="331.922" rx="3.477" ry="3.277" />
        <ellipse opacity="0.8" fill="#00B2E9" cx="14.942" cy="285.2" rx="3.479" ry="3.277" />
        <ellipse opacity="0.9" fill="#FFFFFF" cx="14.943" cy="244.103" rx="0.695" ry="0.655" />
        <ellipse opacity="0.9" fill="#FFFFFF" cx="7.205" cy="263.51" rx="0.696" ry="0.655" />
        <ellipse opacity="0.9" fill="#FFFFFF" cx="6.882" cy="308.174" rx="0.695" ry="0.656" />
        <ellipse opacity="0.9" fill="#FFFFFF" cx="15.791" cy="330.281" rx="0.695" ry="0.655" />
        <ellipse opacity="0.9" fill="#FFFFFF" cx="13.309" cy="283.948" rx="0.695" ry="0.655" />
    </g>
    <g id="d4_12">
        <ellipse opacity="0.6" fill="#00A89C" cx="7.248" cy="357.244" rx="3.478" ry="3.277" />
        <ellipse opacity="0.9" fill="#FFFFFF" cx="8.468" cy="356.122" rx="0.695" ry="0.655" />
    </g>
    <style>
    #d1_12 {
        animation: move1_27 4.9s linear infinite;
    }
    
    @keyframes move1_27 {
        85% {
            transform: translate(0px, 350px);
        }
        85.1% {
            transform: translate(0px, -50px);
        }
    }
    
    #d2_12 {
        animation: move2_27 5s linear infinite;
    }
    
    @keyframes move2_27 {
        50% {
            transform: translate(0px, 230px);
        }
        50.1% {
            transform: translate(0px, -330px);
        }
    }
    
    #d3_12 {
        animation: move3_27 4.9s linear infinite;
    }
    
    @keyframes move3_27 {
        45% {
            transform: translate(0px, 160px);
        }
        45.1% {
            transform: translate(0px, -330px);
        }
    }
    
    #d4_12 {
        animation: move4_27 4.7s linear infinite;
    }
    
    @keyframes move4_27 {
        20% {
            transform: translate(0px, 100px);
        }
        20.1% {
            transform: translate(0px, -330px);
        }
    }
    </style>
</svg>
